<!--
  - SPDX-FileCopyrightText: 2023 The HedgeDoc developers (see AUTHORS file)
  -
  - SPDX-License-Identifier: AGPL-3.0-only
  -->
<svg xmlns="http://www.w3.org/2000/svg" xml:space="preserve" width="1000" height="250" viewBox="0 0 1000 250" fill-rule="evenodd"
     stroke-linejoin="round" stroke-miterlimit="2" clip-rule="evenodd"><path fill-rule="nonzero" d="M315.611 174.486V73.506h11.828v45.779h57.782v-45.78h11.825v100.98h-11.825v-44.43h-57.782v44.43zm167.4-33.727v4.51H425.7c1.127 5.969 4.021 10.871 8.684 14.71 4.663 3.836 10.283 5.756 16.86 5.756 3.652 0 7.502-.708 11.56-2.12 4.053-1.414 7.746-3.693 11.081-6.834l6.556 8.347c-4.911 4.085-9.811 6.89-14.699 8.415-4.89 1.527-9.608 2.29-14.159 2.29 0 0-13.787-1.515-19.463-4.543-5.678-3.03-10.127-7.215-13.346-12.556-3.224-5.34-4.834-11.42-4.834-18.243 0-6.643 1.51-12.579 4.529-17.806 3.018-5.228 7.163-9.347 12.435-12.356 5.272-3.004 11.24-4.51 17.908-4.51 6.67 0 12.57 1.506 17.707 4.51 5.136 3.009 9.168 7.138 12.096 12.39 2.93 5.249 4.394 11.264 4.394 18.04m-57.445-4.914h45.82c-.99-5.88-3.537-10.67-7.636-14.372-4.1-3.705-9.1-5.555-15.002-5.555-5.992 0-11.107 1.874-15.341 5.62-4.235 3.748-6.85 8.518-7.84 14.307m103.739-30.026c4.955 0 9.55.898 13.786 2.693 4.235 1.797 7.862 4.285 10.88 7.47V73.505h11.152v100.98h-10.068l-.61-9.358c-3.02 3.322-6.69 5.936-11.015 7.843-4.326 1.908-9.035 2.862-14.125 2.862-6.533 0-12.38-1.515-17.538-4.545-5.158-3.03-9.216-7.181-12.164-12.455-2.953-5.27-4.428-11.274-4.428-18.009 0-6.73 1.475-12.731 4.428-18.007 2.948-5.273 7.006-9.423 12.164-12.454 5.158-3.03 11.006-4.543 17.538-4.543m-22.64 35.004c0 4.758 1.025 9.022 3.075 12.792 2.049 3.77 4.854 6.733 8.414 8.886 3.557 2.156 7.613 3.233 12.164 3.233 4.551 0 8.607-1.077 12.164-3.233 3.56-2.153 6.365-5.116 8.416-8.886 2.048-3.77 3.074-8.034 3.074-12.792 0-4.799-1.026-9.074-3.074-12.823-2.05-3.746-4.856-6.697-8.416-8.852-3.557-2.154-7.613-3.23-12.164-3.23-4.551 0-8.607 1.076-12.164 3.23-3.56 2.155-6.365 5.106-8.414 8.852-2.05 3.749-3.076 8.024-3.076 12.823m109.484 35.008c-6.532 0-12.38-1.513-17.537-4.544-5.159-3.03-9.216-7.18-12.165-12.454-2.952-5.273-4.428-11.276-4.428-18.009 0-6.733 1.476-12.734 4.428-18.007 2.949-5.273 7.006-9.424 12.164-12.454 5.159-3.03 11.006-4.545 17.538-4.545 5.09 0 9.8.953 14.124 2.861 4.326 1.908 7.997 4.522 11.015 7.844l.61-9.359h10.07v60.722c0 8.304-1.51 15.574-4.528 21.813-3.02 6.237-7.468 11.096-13.347 14.574-5.881 3.477-13.124 5.216-21.728 5.216-4.733 0-9.17-.682-13.315-2.053-4.146-1.37-7.884-3.286-11.217-5.755l5.54-9.289c2.523 2.197 5.408 3.913 8.653 5.148 3.243 1.234 6.757 1.85 10.542 1.85 9.596 0 16.701-2.748 21.322-8.243 4.617-5.5 6.926-12.825 6.926-21.982v-3.498c-3.018 3.187-6.645 5.676-10.88 7.47-4.237 1.795-8.832 2.694-13.787 2.694m-22.64-35.007c0 4.758 1.023 9.022 3.076 12.792 2.048 3.77 4.854 6.73 8.413 8.886 3.558 2.154 7.613 3.23 12.164 3.23 4.55 0 8.607-1.076 12.165-3.23 3.56-2.156 6.365-5.116 8.413-8.886 2.05-3.77 3.076-8.034 3.076-12.792 0-4.801-1.025-9.077-3.076-12.825-2.048-3.744-4.853-6.697-8.413-8.85-3.558-2.156-7.615-3.233-12.164-3.233-4.552 0-8.607 1.077-12.165 3.232-3.56 2.154-6.365 5.107-8.413 8.851-2.053 3.748-3.076 8.024-3.076 12.825m144.42-.065v4.51h-57.31c1.128 5.97 4.022 10.871 8.685 14.71 4.663 3.836 10.283 5.756 16.86 5.756 3.652 0 7.504-.708 11.56-2.12 4.053-1.414 7.746-3.693 11.081-6.834l6.556 8.347c-4.911 4.085-9.811 6.89-14.699 8.415-4.89 1.527-9.608 2.29-14.159 2.29-7.298 0-13.787-1.515-19.463-4.543-5.676-3.03-10.127-7.215-13.347-12.556-3.223-5.34-4.833-11.42-4.833-18.243 0-6.643 1.51-12.579 4.529-17.806 3.018-5.228 7.163-9.347 12.435-12.355 5.272-3.005 11.24-4.51 17.908-4.51 6.67 0 12.57 1.505 17.707 4.51 5.136 3.008 9.168 7.137 12.096 12.388 2.929 5.25 4.394 11.265 4.394 18.041m-57.445-4.914h45.82c-.991-5.88-3.537-10.67-7.637-14.372-4.099-3.705-9.1-5.555-15-5.555-5.993 0-11.108 1.874-15.343 5.62-4.234 3.748-6.848 8.518-7.84 14.307m101.914 38.775h-27.574V73.64h27.574c19.915 0 35.21 4.389 45.888 13.162 10.677 8.774 16.017 21.172 16.017 37.194 0 16.066-5.34 28.522-16.017 37.36-10.677 8.844-25.973 13.264-45.888 13.264m0-10.77c16.039 0 28.34-3.479 36.901-10.436 8.559-6.955 12.84-16.763 12.84-29.418 0-12.61-4.281-22.36-12.84-29.251-8.56-6.888-20.862-10.333-36.901-10.333h-15.746v79.438zm74.804-23.025c0-6.731 1.52-12.734 4.56-18.007 3.043-5.274 7.21-9.424 12.505-12.455 5.294-3.03 11.319-4.543 18.078-4.543 6.757 0 12.783 1.513 18.077 4.543 5.294 3.03 9.46 7.181 12.503 12.455 3.042 5.273 4.56 11.276 4.56 18.007 0 6.733-1.518 12.736-4.56 18.009s-7.21 9.424-12.503 12.454c-5.294 3.03-11.32 4.543-18.077 4.543-6.76 0-12.784-1.513-18.078-4.543-5.295-3.03-9.462-7.181-12.504-12.454-3.04-5.273-4.561-11.276-4.561-18.01m11.489 0c0 4.758 1.023 9.022 3.076 12.792 2.048 3.77 4.854 6.73 8.413 8.887 3.558 2.153 7.613 3.23 12.165 3.23 4.549 0 8.606-1.077 12.164-3.23 3.56-2.156 6.365-5.117 8.415-8.887 2.049-3.77 3.074-8.034 3.074-12.791 0-4.801-1.025-9.077-3.074-12.823-2.05-3.747-4.855-6.697-8.415-8.853-3.558-2.156-7.615-3.23-12.164-3.23-4.552 0-8.607 1.074-12.165 3.23-3.56 2.156-6.364 5.106-8.413 8.853-2.053 3.746-3.076 8.022-3.076 12.823M1000 165.868c-3.154 3.141-6.87 5.587-11.15 7.338-4.281 1.75-8.966 2.625-14.057 2.625-6.759 0-12.785-1.515-18.079-4.545-5.294-3.028-9.46-7.179-12.503-12.454-3.04-5.271-4.56-11.274-4.56-18.007 0-6.733 1.52-12.734 4.56-18.007 3.043-5.276 7.21-9.426 12.503-12.455 5.294-3.03 11.32-4.545 18.08-4.545 5.09 0 9.775.875 14.055 2.626 4.28 1.75 7.997 4.174 11.151 7.27l-7.772 7.742c-2.119-2.38-4.663-4.23-7.635-5.555-2.975-1.322-6.242-1.985-9.8-1.985-4.55 0-8.606 1.077-12.166 3.233-3.56 2.154-6.365 5.104-8.413 8.85-2.05 3.749-3.074 8.025-3.074 12.826 0 4.757 1.023 9.021 3.074 12.791 2.048 3.768 4.853 6.73 8.413 8.885 3.56 2.155 7.615 3.232 12.166 3.232 3.558 0 6.825-.674 9.8-2.02 2.972-1.347 5.516-3.186 7.635-5.52z" style="stroke-width:.604883"/>
    <path fill="#b51f08" fill-rule="nonzero"
          d="m238.353 137.709 12.712-12.665-12.712-12.662 9.563-15.162-15.221-9.527 5.938-16.903-16.968-5.914 2.012-17.795-17.863-2.004L203.8 27.28l-17.863 2.005-5.938-16.903-16.967 5.914-9.566-15.162-15.223 9.527L125.533 0 112.82 12.663 97.6 3.136l-9.564 15.162-16.968-5.915-5.937 16.902-17.865-2.005-2.012 17.794-17.864 2.005 2.014 17.794-16.97 5.915L18.37 87.69 3.148 97.216l9.566 15.165L0 125.044l12.712 12.665-9.564 15.163 15.222 9.526-5.938 16.902 16.97 5.915-2.013 17.793 17.864 2.006 2.012 17.793 17.865-2.004 5.937 16.9 16.968-5.911 9.564 15.162 15.22-9.528 12.713 12.545 12.713-12.542 15.22 9.527 9.564-15.164 16.97 5.915 5.936-16.902 17.865 2.004 2.012-17.795 17.865-2.005-2.014-17.794 16.97-5.915-5.938-16.904 15.221-9.526z"
          style="stroke-width:.604883"/>
    <path fill="#fdd49a" fill-rule="nonzero"
          d="M212.614 145.062c0-24.474-19.918-44.315-44.488-44.315-12.204 0-23.26 4.899-31.296 12.827l-.005-.006-11.335 11.292-9.268-9.233c-8.154-9.266-20.115-15.124-33.456-15.124-24.57 0-44.488 19.84-44.488 44.315 0 12.789 5.444 24.304 14.143 32.392L125.533 250l71.497-71.265c8.933-8.375 15.584-20.194 15.584-33.673"
          style="stroke-width:.604883"/>
    <path fill="url(#a)" fill-rule="nonzero"
          d="m125.466 124.836-9.267-9.23c-8.153-9.266-20.112-15.123-33.451-15.123-24.566 0-44.48 19.838-44.48 44.308 0 12.787 5.443 24.3 14.14 32.387l73.1 72.778"
          style="fill:url(#a);stroke-width:.168581"/>
    <path fill="none" d="m125.533 250-.043-125.14" style="stroke-width:.604883"/>
    <path fill="#010007" fill-rule="nonzero"
          d="M138.233 237.416a17.943 17.943 0 0 0-12.725-5.269c-4.97 0-9.468 2.013-12.726 5.269.052 6.957 5.728 12.58 12.725 12.58s12.674-5.625 12.726-12.58m-27.588-76.63c0 5.351-4.353 9.688-9.726 9.688-5.37 0-9.724-4.337-9.724-9.688 0-5.351 4.354-9.688 9.724-9.688 5.373 0 9.726 4.337 9.726 9.688"
          style="stroke-width:.604883"/>
    <path fill="#fffffa" fill-rule="nonzero"
          d="M107.31 159.334a2.687 2.687 0 0 1-2.695 2.682 2.688 2.688 0 0 1-2.696-2.682 2.692 2.692 0 0 1 2.696-2.686 2.691 2.691 0 0 1 2.694 2.686"
          style="stroke-width:.604883"/>
    <path fill="#010007" fill-rule="nonzero"
          d="M159.965 160.786c0 5.351-4.354 9.688-9.726 9.688-5.37 0-9.725-4.337-9.725-9.688 0-5.351 4.354-9.688 9.725-9.688 5.372 0 9.726 4.337 9.726 9.688"
          style="stroke-width:.604883"/>
    <path fill="#fffffa" fill-rule="nonzero"
          d="M156.628 159.334a2.688 2.688 0 0 1-2.694 2.682 2.688 2.688 0 0 1-2.697-2.682 2.692 2.692 0 0 1 2.697-2.686 2.692 2.692 0 0 1 2.694 2.686"
          style="stroke-width:.604883"/>
    <defs><linearGradient id="a" x1="0" x2="1" y1="0" y2="0" gradientTransform="matrix(33.78184 -70.66647 70.94186 33.6507 87.363 201.437)" gradientUnits="userSpaceOnUse"><stop offset="0" stop-color="#fdd49a"/><stop
            offset="1" stop-color="#dca055"/></linearGradient></defs></svg>
