<!--
  - SPDX-FileCopyrightText: 2023 The HedgeDoc developers (see AUTHORS file)
  -
  - SPDX-License-Identifier: AGPL-3.0-only
  -->
<svg xmlns="http://www.w3.org/2000/svg" width="1500" height="377" viewBox="0 0 1500 377" fill-rule="evenodd" stroke-linejoin="round"
     stroke-miterlimit="2" clip-rule="evenodd">
    <g fill-rule="nonzero">
        <path fill="#333"
              d="m188.688 0-19.11 19.094-22.88-14.367-14.37 22.866-25.507-8.92-8.923 25.486-26.856-3.023-3.02 26.833-26.852 3.023 3.022 26.832-25.507 8.92 8.924 25.487L4.73 146.6l14.38 22.865L0 188.563l19.107 19.094L4.73 230.52l22.879 14.367-8.924 25.49 25.507 8.917-3.022 26.814 26.853 3.017 3.019 26.814 26.856-3.029 8.923 25.487 25.506-8.917 14.37 22.866 22.882-14.364h38.213l22.878 14.364 14.376-22.86 25.506 8.917 8.923-25.487 26.853 3.027 3.029-26.815 26.847-3.02-3.022-26.814 25.503-8.918-8.923-25.49 22.88-14.369-14.378-22.86 19.106-19.094-19.106-19.097 14.379-22.86-22.881-14.366 8.923-25.493-25.503-8.917 3.028-26.832-26.853-3.03-3.026-26.832-26.85 3.023-8.926-25.486-25.503 8.92-14.376-22.869-22.884 14.37z"/>
        <path fill="#fefefe"
              d="M319.578 218.746c0-36.905-29.938-66.829-66.87-66.829-18.345 0-34.96 7.39-47.04 19.342l-.01-.007-17.037 17.03-13.93-13.923c-12.257-13.976-30.237-22.806-50.288-22.806-36.931 0-66.87 29.918-66.87 66.822 0 19.288 8.183 36.651 21.257 48.848L188.684 377l107.47-107.478c13.426-12.63 23.424-30.45 23.424-50.776"/>
        <path d="M207.777 357.966c-4.897-4.91-11.658-7.944-19.13-7.944-7.466 0-14.233 3.035-19.128 7.944.078 10.487 8.61 18.972 19.128 18.972s19.053-8.485 19.13-18.972m-41.47-115.504c0 8.07-6.543 14.609-14.615 14.609-8.075 0-14.621-6.539-14.621-14.609s6.546-14.611 14.62-14.611c8.073 0 14.616 6.542 14.616 14.611"/>
        <path fill="#fff"
              d="M161.291 241.893a4.044 4.044 0 0 1-4.049 4.046 4.043 4.043 0 0 1-4.046-4.046 4.05 4.05 0 0 1 4.046-4.05 4.05 4.05 0 0 1 4.05 4.05"/>
        <path d="M240.439 242.462c0 8.07-6.543 14.609-14.621 14.609-8.072 0-14.615-6.539-14.615-14.609s6.543-14.611 14.615-14.611c8.078 0 14.621 6.542 14.621 14.611"/>
        <path fill="#fff"
              d="M235.426 241.892a4.047 4.047 0 0 1-4.055 4.046 4.043 4.043 0 0 1-4.047-4.046 4.05 4.05 0 0 1 4.047-4.05 4.053 4.053 0 0 1 4.055 4.05"/>
        <path fill="#333"
              d="M830.958 111.404v63.922c-4.527-4.793-9.969-8.538-16.321-11.242-6.355-2.701-13.247-4.053-20.68-4.053-9.798 0-18.57 2.277-26.307 6.837-7.737 4.56-13.823 10.807-18.246 18.743-4.428 7.938-6.642 16.968-6.642 27.097 0 10.134 2.214 19.17 6.642 27.102 4.423 7.935 10.509 14.18 18.246 18.74 7.738 4.56 16.509 6.841 26.307 6.841 7.636 0 14.699-1.435 21.188-4.306 6.486-2.871 11.993-6.805 16.523-11.804l.915 14.084h15.1V111.404Zm-357.541.002v151.959h17.741v-66.861h86.673v66.86h17.738V111.406H577.83v68.89h-86.673v-68.89zm658.818.2v151.961h41.36c29.872 0 52.816-6.653 68.832-19.96 16.016-13.301 24.025-32.046 24.025-56.222 0-24.11-8.01-42.769-24.025-55.971-16.016-13.203-38.96-19.808-68.832-19.808zm17.742 16.213h23.618c24.058 0 42.51 5.182 55.352 15.547 12.838 10.37 19.26 25.042 19.26 44.02 0 19.042-6.422 33.802-19.26 44.269-12.841 10.469-31.294 15.705-55.352 15.705h-23.618zm-225.755 32.21c-9.798 0-18.568 2.28-26.305 6.84-7.738 4.56-13.825 10.806-18.248 18.742-4.429 7.935-6.64 16.966-6.64 27.098 0 10.132 2.211 19.165 6.64 27.1 4.423 7.936 10.51 14.184 18.248 18.744 7.737 4.56 16.506 6.836 26.305 6.836 7.433 0 14.327-1.351 20.682-4.052 6.351-2.701 11.792-6.447 16.319-11.243v5.265c0 13.778-3.464 24.802-10.39 33.078-6.93 8.27-17.588 12.407-31.982 12.407-5.677 0-10.949-.928-15.814-2.784-4.867-1.86-9.194-4.443-12.977-7.75l-8.312 13.98c5 3.715 10.608 6.598 16.826 8.66 6.217 2.063 12.873 3.09 19.971 3.09 12.907 0 23.77-2.617 32.593-7.849 8.818-5.234 15.49-12.547 20.02-21.933 4.528-9.389 6.79-20.329 6.79-32.825v-91.377h-15.104l-.913 14.083c-4.527-4.999-10.034-8.932-16.523-11.803-6.487-2.871-13.55-4.307-21.186-4.307zm537.969.002c-10.139 0-19.18 2.28-27.12 6.84-7.94 4.558-14.19 10.803-18.754 18.742-4.56 7.935-6.84 16.965-6.84 27.096 0 10.132 2.28 19.167 6.84 27.099 4.564 7.938 10.813 14.184 18.754 18.741 7.94 4.56 16.981 6.84 27.12 6.84 7.636 0 14.663-1.316 21.083-3.951 6.42-2.635 11.996-6.315 16.726-11.042l-11.658-11.548c-3.178 3.513-6.994 6.278-11.453 8.304-4.461 2.027-9.361 3.042-14.698 3.042-6.827 0-12.91-1.62-18.25-4.864-5.339-3.241-9.547-7.7-12.62-13.37-3.076-5.673-4.611-12.091-4.611-19.25 0-7.226 1.535-13.659 4.611-19.299 3.073-5.637 7.281-10.08 12.62-13.32 5.34-3.244 11.423-4.864 18.25-4.864 5.337 0 10.237.996 14.698 2.986 4.459 1.994 8.275 4.778 11.453 8.36L1500 174.922c-4.73-4.659-10.305-8.306-16.726-10.941-6.42-2.635-13.447-3.95-21.083-3.95zm-788.971.002c-10.001 0-18.955 2.266-26.863 6.787-7.907 4.527-14.125 10.725-18.652 18.592-4.527 7.867-6.793 16.8-6.793 26.797 0 10.266 2.414 19.415 7.25 27.452 4.828 8.037 11.504 14.335 20.02 18.895 8.515 4.557 29.195 6.837 29.195 6.837 6.826 0 13.904-1.15 21.239-3.448 7.331-2.295 14.68-6.514 22.047-12.662l-9.833-12.56c-5.002 4.727-10.543 8.156-16.623 10.284-6.086 2.125-11.861 3.19-17.338 3.19-9.867 0-18.298-2.889-25.291-8.66-6.994-5.778-11.336-13.157-13.026-22.14h85.964v-6.785c0-10.198-2.198-19.25-6.59-27.15-4.394-7.903-10.442-14.115-18.147-18.642-7.705-4.521-16.555-6.787-26.559-6.787zm382.376 0c-10.001 0-18.953 2.266-26.86 6.787-7.908 4.527-14.128 10.725-18.655 18.592-4.527 7.867-6.793 16.8-6.793 26.797 0 10.266 2.416 19.415 7.251 27.452 4.83 8.037 11.506 14.335 20.02 18.895 8.514 4.557 18.246 6.837 29.194 6.837 6.826 0 13.905-1.15 21.239-3.448 7.331-2.295 14.682-6.514 22.05-12.662l-9.836-12.56c-5.002 4.727-10.54 8.156-16.62 10.284-6.084 2.125-11.864 3.19-17.341 3.19-9.867 0-18.296-2.889-25.29-8.66-6.994-5.778-11.337-13.157-13.027-22.14h85.964v-6.785c0-10.198-2.198-19.25-6.59-27.15-4.393-7.903-10.44-14.115-18.145-18.642-7.705-4.521-16.557-6.787-26.56-6.787zm282.92 0c-10.14 0-19.175 2.277-27.115 6.837-7.944 4.56-14.194 10.807-18.757 18.743-4.56 7.935-6.843 16.968-6.843 27.096 0 10.132 2.282 19.167 6.843 27.103 4.563 7.935 10.813 14.18 18.757 18.74 7.94 4.56 16.976 6.837 27.114 6.837 10.136 0 19.176-2.276 27.117-6.836 7.94-4.56 14.19-10.806 18.754-18.741 4.563-7.936 6.84-16.97 6.84-27.103 0-10.128-2.277-19.161-6.84-27.096-4.564-7.936-10.813-14.183-18.754-18.743-7.94-4.56-16.98-6.837-27.117-6.837zm-412.773 15.192c6.824 0 12.91 1.622 18.246 4.866 5.34 3.24 9.548 7.684 12.62 13.318 3.077 5.64 4.614 12.075 4.614 19.3 0 7.16-1.537 13.576-4.613 19.249-3.073 5.673-7.281 10.13-12.62 13.374-5.337 3.24-11.423 4.861-18.247 4.861-6.826 0-12.91-1.62-18.247-4.861-5.34-3.244-9.548-7.7-12.62-13.374-3.08-5.673-4.614-12.09-4.614-19.249 0-7.225 1.534-13.66 4.613-19.3 3.073-5.634 7.281-10.077 12.62-13.318 5.337-3.244 11.422-4.866 18.248-4.866zm-130.266.002c6.827 0 12.91 1.62 18.246 4.862 5.34 3.244 9.548 7.685 12.624 13.322 3.073 5.64 4.611 12.074 4.611 19.297 0 7.159-1.538 13.577-4.611 19.25-3.076 5.673-7.285 10.13-12.624 13.372-5.337 3.244-11.42 4.865-18.246 4.865-6.827 0-12.91-1.621-18.246-4.865-5.34-3.241-9.548-7.699-12.62-13.372-3.077-5.673-4.615-12.091-4.615-19.25 0-7.223 1.538-13.657 4.614-19.297 3.073-5.637 7.282-10.078 12.621-13.322 5.337-3.241 11.42-4.862 18.246-4.862zm-122.356.002c8.851 0 16.352 2.784 22.501 8.359 6.15 5.572 9.97 12.78 11.456 21.628h-68.73c1.487-8.711 5.407-15.888 11.76-21.529 6.351-5.637 14.024-8.458 23.013-8.458zm382.377 0c8.852 0 16.353 2.784 22.502 8.359 6.15 5.572 9.969 12.78 11.456 21.628h-68.73c1.487-8.711 5.407-15.888 11.76-21.529 6.351-5.637 14.024-8.458 23.012-8.458zm283.017 0c6.824 0 12.911 1.618 18.248 4.862 5.34 3.244 9.547 7.684 12.623 13.322 3.072 5.637 4.61 12.071 4.61 19.296 0 7.16-1.538 13.578-4.61 19.25-3.076 5.674-7.283 10.129-12.623 13.373-5.337 3.24-11.424 4.862-18.248 4.862-6.826 0-12.909-1.621-18.245-4.862-5.34-3.244-9.548-7.699-12.621-13.372-3.079-5.673-4.613-12.091-4.613-19.25 0-7.226 1.534-13.66 4.613-19.297 3.073-5.638 7.281-10.078 12.62-13.322 5.337-3.244 11.42-4.862 18.246-4.862z"/>
    </g>
</svg>
