<!--
  - SPDX-FileCopyrightText: 2023 The HedgeDoc developers (see AUTHORS file)
  -
  - SPDX-License-Identifier: AGPL-3.0-only
  -->
<svg xmlns="http://www.w3.org/2000/svg" width="1500" height="990" viewBox="0 0 1500 990" fill-rule="evenodd"
     stroke-linejoin="round"
     stroke-miterlimit="2" clip-rule="evenodd">
    <linearGradient id="a" x1="0" x2="1" y1="0" y2="0" gradientTransform="matrix(200 -420 420 200 660 1340)"
                    gradientUnits="userSpaceOnUse">
        <stop offset="0" stop-color="#fdd49a"/>
        <stop offset="1" stop-color="#dca055"/>
    </linearGradient>
    <g fill-rule="nonzero">
        <path fill="#fff"
              d="M523.5 690.565v93.537c-6.626-7.015-14.593-12.498-23.892-16.452-9.303-3.953-19.397-5.932-30.28-5.932-14.35 0-27.19 3.333-38.52 10.005-11.33 6.672-20.237 15.81-26.715 27.424-6.482 11.613-9.721 24.83-9.721 39.653 0 14.827 3.239 28.044 9.72 39.653 6.479 11.613 15.386 20.755 26.716 27.427 11.33 6.668 24.17 10.002 38.52 10.002 11.181 0 21.523-2.1 31.02-6.297 9.498-4.202 17.56-9.955 24.195-17.272l1.336 20.607h22.115V690.565ZM0 690.567v222.355h25.978v-97.834H152.88v97.834h25.97V690.567h-25.97V791.37H25.978V690.567Zm964.625.295v222.355h60.558c43.736 0 77.33-9.733 100.78-29.204 23.45-19.467 35.177-46.891 35.177-82.271 0-35.278-11.727-62.577-35.177-81.9-23.45-19.317-57.044-28.98-100.78-28.98zm25.974 23.717h34.584c35.223 0 62.238 7.586 81.04 22.756 18.796 15.17 28.2 36.64 28.2 64.407 0 27.87-9.404 49.464-28.2 64.778-18.802 15.32-45.817 22.98-81.04 22.98h-34.584zm-698.05 47.141c-14.647 0-27.753 3.309-39.331 9.927-11.579 6.627-20.685 15.695-27.312 27.205-6.63 11.514-9.948 24.58-9.948 39.209 0 15.021 3.54 28.411 10.614 40.169 7.074 11.766 16.85 20.975 29.314 27.647 12.468 6.672 26.718 10.006 42.747 10.006 9.994 0 20.357-1.681 31.096-5.04 10.735-3.359 21.497-9.536 32.28-18.53l-14.394-18.379c-7.326 6.916-15.438 11.93-24.34 15.045-8.907 3.111-17.365 4.668-25.386 4.668-14.445 0-26.79-4.224-37.028-12.673-10.242-8.449-16.599-19.249-19.073-32.39h125.865v-9.932c0-14.922-3.219-28.167-9.651-39.726-6.428-11.564-15.285-20.652-26.566-27.279-11.28-6.618-24.239-9.927-38.887-9.927zm367.507 0c-14.35 0-27.19 3.333-38.52 10.001-11.33 6.672-20.237 15.815-26.715 27.428-6.482 11.613-9.72 24.826-9.72 39.649 0 14.827 3.238 28.048 9.72 39.657 6.478 11.613 15.385 20.75 26.716 27.422 11.33 6.672 24.17 10.006 38.52 10.006 10.879 0 20.977-1.978 30.28-5.928 9.295-3.954 17.265-9.436 23.892-16.455v7.709c0 20.156-5.071 36.29-15.21 48.399-10.147 12.1-25.755 18.156-46.83 18.156-8.311 0-16.03-1.358-23.153-4.077-7.123-2.718-13.462-6.499-19.005-11.337l-12.165 20.454c7.318 5.437 15.533 9.66 24.638 12.676 9.1 3.015 18.85 4.52 29.241 4.52 18.897 0 34.802-3.83 47.72-11.49 12.91-7.656 22.681-18.356 29.312-32.088 6.627-13.74 9.946-29.75 9.946-48.035V764.681h-22.115l-1.34 20.608c-6.631-7.317-14.694-13.068-24.191-17.274-9.498-4.197-19.844-6.295-31.02-6.295zm192.36 0c-14.644 0-27.753 3.309-39.331 9.927-11.579 6.627-20.683 15.695-27.31 27.205-6.631 11.514-9.948 24.58-9.948 39.209 0 15.021 3.54 28.411 10.614 40.169 7.074 11.766 16.848 20.975 29.316 27.647 12.467 6.672 26.715 10.006 42.745 10.006 9.998 0 20.359-1.681 31.098-5.04 10.73-3.359 21.494-9.536 32.278-18.53l-14.394-18.379c-7.326 6.916-15.435 11.93-24.34 15.045-8.907 3.111-17.367 4.668-25.384 4.668-14.445 0-26.788-4.224-37.03-12.673-10.243-8.449-16.601-19.249-19.075-32.39h125.866v-9.932c0-14.922-3.218-28.167-9.65-39.726-6.429-11.564-15.286-20.652-26.566-27.279-11.281-6.618-24.241-9.927-38.89-9.927zm411.143 0c-14.846 0-28.08 3.333-39.708 10.005-11.628 6.672-20.778 15.81-27.459 27.424-6.676 11.613-10.02 24.83-10.02 39.653 0 14.827 3.344 28.042 10.02 39.65 6.68 11.614 15.831 20.756 27.46 27.428 11.627 6.673 24.861 10.007 39.707 10.007 14.843 0 28.075-3.334 39.699-10.006 11.628-6.673 20.782-15.815 27.463-27.428 6.68-11.609 10.02-24.824 10.02-39.651 0-14.823-3.34-28.04-10.02-39.653s-15.835-20.752-27.463-27.424c-11.624-6.672-24.856-10.005-39.699-10.005zm181.08.002c-14.846 0-28.08 3.335-39.704 10.007-11.628 6.672-20.783 15.81-27.463 27.424-6.677 11.613-10.018 24.828-10.018 39.65 0 14.824 3.341 28.045 10.018 39.654 6.68 11.613 15.835 20.751 27.463 27.424 11.624 6.672 24.858 10.006 39.704 10.006 11.181 0 21.468-1.926 30.87-5.78 9.4-3.855 17.566-9.241 24.491-16.157l-17.068-16.901c-4.654 5.143-10.242 9.191-16.77 12.153-6.536 2.967-13.709 4.45-21.523 4.45-9.998 0-18.905-2.371-26.72-7.114-7.817-4.747-13.977-11.266-18.478-19.57-4.504-8.3-6.753-17.691-6.753-28.164 0-10.572 2.249-19.986 6.753-28.237 4.501-8.25 10.66-14.749 18.479-19.495 7.814-4.743 16.72-7.114 26.719-7.114 7.814 0 14.987 1.459 21.523 4.371 6.528 2.917 12.116 6.993 16.77 12.232L1500 783.512c-6.925-6.817-15.092-12.154-24.49-16.009-9.403-3.854-19.69-5.781-30.871-5.781zm-973.086 22.23c9.994 0 18.9 2.373 26.714 7.12 7.818 4.742 13.979 11.24 18.484 19.49 4.5 8.25 6.75 17.666 6.75 28.238 0 10.477-2.25 19.863-6.75 28.162-4.505 8.304-10.666 14.823-18.484 19.57-7.814 4.743-16.72 7.115-26.714 7.115s-18.9-2.372-26.713-7.115c-7.823-4.747-13.982-11.266-18.479-19.57-4.509-8.3-6.759-17.685-6.759-28.162 0-10.572 2.25-19.988 6.76-28.238 4.496-8.25 10.655-14.748 18.478-19.49 7.814-4.747 16.72-7.12 26.713-7.12zm-179.15.002c12.96 0 23.944 4.074 32.95 12.23 9 8.155 14.593 18.702 16.769 31.645H241.489c2.176-12.745 7.919-23.248 17.222-31.498 9.3-8.25 20.53-12.377 33.693-12.377zm369.879 0c9.994 0 18.899 2.373 26.713 7.115 7.818 4.747 13.98 11.244 18.484 19.49 4.5 8.255 6.75 17.671 6.75 28.239 0 10.477-2.25 19.867-6.75 28.166-4.504 8.3-10.666 14.823-18.484 19.566-7.814 4.747-16.72 7.12-26.713 7.12-9.994 0-18.901-2.373-26.72-7.12-7.818-4.743-13.978-11.266-18.474-19.566-4.509-8.3-6.758-17.69-6.758-28.166 0-10.568 2.249-19.984 6.758-28.238 4.496-8.247 10.656-14.744 18.474-19.49 7.819-4.743 16.726-7.116 26.72-7.116zm189.99 0c12.96 0 23.941 4.074 32.947 12.23 9.001 8.155 14.596 18.702 16.771 31.645H801.358c2.176-12.745 7.917-23.248 17.22-31.498 9.3-8.25 20.532-12.377 33.694-12.377zm411.287 0c9.99 0 18.9 2.37 26.714 7.117 7.818 4.743 13.977 11.242 18.478 19.492 4.505 8.25 6.756 17.667 6.756 28.239 0 10.477-2.251 19.862-6.756 28.166-4.5 8.3-10.66 14.82-18.478 19.566-7.814 4.747-16.724 7.115-26.714 7.115-9.998 0-18.905-2.368-26.719-7.115-7.818-4.747-13.978-11.266-18.478-19.566-4.505-8.304-6.756-17.69-6.756-28.166 0-10.572 2.251-19.988 6.756-28.239 4.5-8.25 10.66-14.749 18.478-19.492 7.814-4.746 16.721-7.117 26.72-7.117z"/>
        <path fill="#b51f08"
              d="m1026.572 335.84 30.922-30.886-30.922-30.88 23.262-36.976-37.024-23.235 14.444-41.223-41.274-14.422 4.895-43.398-43.452-4.888-4.898-43.4-43.451 4.889-14.444-41.222-41.27 14.423-23.27-36.977-37.028 23.236L752.143 0l-30.918 30.882L684.199 7.65l-23.264 36.975L619.661 30.2l-14.44 41.22-43.456-4.89-4.895 43.396-43.452 4.889 4.897 43.396-41.28 14.425 14.442 41.22-37.024 23.233 23.267 36.983-30.925 30.883 30.922 30.885-23.264 36.98 37.025 23.232-14.442 41.22 41.277 14.426-4.895 43.391 43.452 4.892 4.895 43.396 43.455-4.888 14.441 41.216 41.272-14.417 23.266 36.977 37.022-23.237 30.922 30.595 30.923-30.587 37.024 23.233 23.262-36.981 41.278 14.425 14.44-41.22 43.455 4.888 4.894-43.4 43.455-4.887-4.898-43.396 41.278-14.425-14.444-41.225 37.024-23.232z"/>
        <path fill="#fdd49a"
              d="M963.963 353.772c0-59.686-48.448-108.074-108.213-108.074-29.685 0-56.577 11.948-76.125 31.283l-.014-.014-27.571 27.537-22.544-22.515c-19.834-22.6-48.93-36.886-81.38-36.886-59.767 0-108.215 48.387-108.215 108.074 0 31.19 13.244 59.274 34.403 78.998l177.84 177.517 173.911-173.8c21.73-20.425 37.908-49.247 37.908-82.12"/>
        <path fill="url(#a)"
              d="m885.579 884.73-54.862-54.862c-48.267-55.067-119.071-89.879-198.042-89.879-145.442 0-263.342 117.904-263.342 263.341 0 76 32.23 144.43 83.721 192.49l432.779 432.55"
              style="fill:url(#a)" transform="matrix(.411 0 0 .4104 388.133 -58.586)"/>
    </g>
    <path fill="none" d="m752.144 609.692-.104-305.188" style="stroke-width:.993567"/>
    <g fill-rule="nonzero">
        <path fill="#010007"
              d="M783.037 579.002c-7.922-7.94-18.869-12.85-30.953-12.85-12.088 0-23.03 4.91-30.955 12.85.127 16.966 13.934 30.681 30.953 30.681 17.02 0 30.828-13.72 30.955-30.68M715.93 392.12c0 13.05-10.588 23.626-23.657 23.626-13.062 0-23.652-10.575-23.652-23.626 0-13.05 10.59-23.627 23.652-23.627 13.069 0 23.657 10.576 23.657 23.627"/>
        <path fill="#fffffa"
              d="M707.817 388.578c0 3.62-2.936 6.542-6.554 6.542-3.62 0-6.558-2.922-6.558-6.542 0-3.615 2.939-6.55 6.558-6.55a6.555 6.555 0 0 1 6.554 6.55"/>
        <path fill="#010007"
              d="M835.898 392.12c0 13.05-10.59 23.626-23.657 23.626-13.063 0-23.656-10.575-23.656-23.626 0-13.05 10.593-23.627 23.656-23.627 13.067 0 23.657 10.576 23.657 23.627"/>
        <path fill="#fffffa"
              d="M827.782 388.578c0 3.62-2.938 6.542-6.554 6.542-3.62 0-6.558-2.922-6.558-6.542 0-3.615 2.938-6.55 6.558-6.55a6.556 6.556 0 0 1 6.554 6.55"/>
    </g>
</svg>
