<!--
SPDX-FileCopyrightText: 2021 The HedgeDoc developers (see AUTHORS file)

SPDX-License-Identifier: LicenseRef-HedgeDoc-Icon-Usage-Guidelines
-->
<svg xmlns="http://www.w3.org/2000/svg" width="1500" height="377" viewBox="0 0 1500 377" fill-rule="evenodd" stroke-linejoin="round"
     stroke-miterlimit="2" clip-rule="evenodd">
    <g fill-rule="nonzero">
        <path d="M217.798 10.242a5.985 5.985 0 0 0-4.231 1.753l-17.04 17.037-20.403-12.818a5.985 5.985 0 0 0-8.251 1.883L155.06 38.5l-22.741-7.959a5.985 5.985 0 0 0-7.625 3.672l-7.957 22.74-23.947-2.698a5.985 5.985 0 0 0-6.617 5.279l-2.693 23.94-23.941 2.697a5.985 5.985 0 0 0-5.277 6.616l2.693 23.941-22.743 7.96a5.985 5.985 0 0 0-3.672 7.624l7.957 22.741-20.402 12.822a5.985 5.985 0 0 0-1.881 8.252l12.822 20.402-17.04 17.039a5.985 5.985 0 0 0 0 8.463l17.036 17.037-12.818 20.399a5.985 5.985 0 0 0 1.883 8.25l20.4 12.82-7.957 22.744a5.985 5.985 0 0 0 3.672 7.625l22.743 7.955-2.693 23.923a5.985 5.985 0 0 0 5.277 6.616l23.943 2.691 2.691 23.92a5.985 5.985 0 0 0 6.618 5.278l23.946-2.703 7.957 22.739a5.985 5.985 0 0 0 7.623 3.674l22.743-7.957 12.813 20.402a5.985 5.985 0 0 0 8.25 1.883l22.984-14.436h37.375l22.982 14.436a5.985 5.985 0 0 0 8.249-1.883l12.82-20.396 22.743 7.957a5.985 5.985 0 0 0 7.625-3.673l7.955-22.739 23.946 2.7a5.985 5.985 0 0 0 6.616-5.275l2.699-23.923 23.94-2.695a5.985 5.985 0 0 0 5.276-6.616l-2.695-23.923 22.74-7.955a5.985 5.985 0 0 0 3.673-7.625l-7.957-22.745 20.404-12.82a5.985 5.985 0 0 0 1.882-8.253l-12.82-20.397 17.036-17.035a5.985 5.985 0 0 0 0-8.463l-17.037-17.04 12.82-20.396a5.985 5.985 0 0 0-1.881-8.25l-20.404-12.82 7.957-22.746a5.985 5.985 0 0 0-3.672-7.625l-22.739-7.955 2.7-23.942a5.985 5.985 0 0 0-5.276-6.618l-23.945-2.703-2.697-23.941a5.985 5.985 0 0 0-6.616-5.277l-23.942 2.697-7.96-22.739a5.985 5.985 0 0 0-7.626-3.672l-22.739 7.96-12.818-20.407a5.985 5.985 0 0 0-8.252-1.883l-20.405 12.822-17.034-17.037a5.985 5.985 0 0 0-4.232-1.753Zm0 14.448 16.176 16.18a5.985 5.985 0 0 0 7.417.835l19.378-12.176 12.175 19.378a5.985 5.985 0 0 0 7.043 2.466l21.597-7.559 7.559 21.595a5.985 5.985 0 0 0 6.318 3.97l22.737-2.56 2.56 22.736a5.985 5.985 0 0 0 5.278 5.275l22.74 2.569-2.564 22.737a5.985 5.985 0 0 0 3.97 6.318l21.595 7.557-7.555 21.603a5.985 5.985 0 0 0 2.464 7.042l19.376 12.174-12.175 19.37a5.985 5.985 0 0 0 .834 7.415l16.18 16.183-16.18 16.18a5.985 5.985 0 0 0-.834 7.417l12.175 19.37-19.376 12.175a5.985 5.985 0 0 0-2.464 7.043l7.555 21.601-21.595 7.555a5.985 5.985 0 0 0-3.97 6.318l2.559 22.718-22.733 2.56a5.985 5.985 0 0 0-5.277 5.274l-2.565 22.718-22.74-2.564a5.985 5.985 0 0 0-6.319 3.972l-7.557 21.595-21.599-7.557a5.985 5.985 0 0 0-7.042 2.466l-12.176 19.37-19.372-12.172a5.985 5.985 0 0 0-3.185-.916h-40.82a5.985 5.985 0 0 0-3.186.916l-19.374 12.172-12.17-19.376a5.985 5.985 0 0 0-7.042-2.466l-21.6 7.557-7.556-21.597a5.985 5.985 0 0 0-6.32-3.97l-22.741 2.566-2.555-22.714a5.985 5.985 0 0 0-5.279-5.279l-22.739-2.555 2.559-22.718a5.985 5.985 0 0 0-3.97-6.318l-21.599-7.557 7.555-21.599a5.985 5.985 0 0 0-2.464-7.043l-19.374-12.173 12.174-19.372a5.985 5.985 0 0 0-.835-7.417l-16.18-16.18 16.182-16.181a5.985 5.985 0 0 0 .837-7.417L29.53 174.822l19.374-12.175a5.985 5.985 0 0 0 2.464-7.043l-7.555-21.597 21.599-7.559a5.985 5.985 0 0 0 3.97-6.318l-2.559-22.737 22.741-2.563a5.985 5.985 0 0 0 5.277-5.276l2.555-22.736 22.743 2.561a5.985 5.985 0 0 0 6.318-3.97l7.557-21.595 21.599 7.559a5.985 5.985 0 0 0 7.042-2.466l12.17-19.376L194.2 41.705a5.985 5.985 0 0 0 7.415-.835z"
              style="color:#000;fill:#fff;stroke-width:.971164;stroke-miterlimit:2;-inkscape-stroke:none"
              transform="matrix(.9091 0 0 .9085 -9.311 -9.305)"/>
        <path fill="#fefefe"
              d="M361.778 251.022c0-40.622-32.932-73.56-73.557-73.56-20.18 0-38.457 8.133-51.745 21.29l-.01-.007-18.74 18.744-15.325-15.325c-13.481-15.383-33.26-25.103-55.315-25.103-40.625 0-73.557 32.931-73.557 73.553 0 21.23 9.001 40.343 23.383 53.768l120.883 120.834L336.01 306.912c14.77-13.902 25.768-33.516 25.768-55.89"
              style="stroke-width:0;stroke-dasharray:none" transform="matrix(.9091 0 0 .9085 -9.311 -9.305)"/>
        <path d="M238.797 404.265c-5.387-5.403-12.824-8.744-21.043-8.744-8.213 0-15.656 3.34-21.04 8.744.085 11.544 9.47 20.883 21.04 20.883 11.57 0 20.958-9.34 21.043-20.883M193.18 277.127c0 8.883-7.198 16.08-16.077 16.08-8.882 0-16.083-7.197-16.083-16.08 0-8.882 7.2-16.083 16.083-16.083 8.88 0 16.077 7.2 16.077 16.083"
              style="stroke-width:0;stroke-dasharray:none" transform="matrix(.9091 0 0 .9085 -9.311 -9.305)"/>
        <path fill="#fff"
              d="M187.663 276.5a4.45 4.45 0 0 1-4.455 4.454 4.45 4.45 0 0 1-4.45-4.454 4.456 4.456 0 0 1 4.45-4.458 4.457 4.457 0 0 1 4.455 4.458"
              style="stroke-width:0;stroke-dasharray:none" transform="matrix(.9091 0 0 .9085 -9.311 -9.305)"/>
        <path d="M274.725 277.127c0 8.883-7.197 16.08-16.083 16.08-8.88 0-16.077-7.197-16.077-16.08 0-8.882 7.198-16.083 16.077-16.083 8.886 0 16.083 7.2 16.083 16.083"
              style="stroke-width:0;stroke-dasharray:none" transform="matrix(.9091 0 0 .9085 -9.311 -9.305)"/>
        <path fill="#fff"
              d="M269.21 276.499a4.453 4.453 0 0 1-4.46 4.454 4.449 4.449 0 0 1-4.451-4.454 4.456 4.456 0 1 1 8.912 0"
              style="stroke-width:0;stroke-dasharray:none" transform="matrix(.9091 0 0 .9085 -9.311 -9.305)"/>
        <path fill="#333"
              d="M924.295 132.868v70.36c-4.98-5.275-10.966-9.398-17.953-12.374-6.99-2.973-14.572-4.461-22.748-4.461-10.778 0-20.426 2.506-28.938 7.525-8.51 5.02-15.205 11.896-20.07 20.631-4.871 8.738-7.307 18.677-7.307 29.826 0 11.156 2.436 21.1 7.307 29.832 4.865 8.735 11.56 15.61 20.07 20.63 8.512 5.019 18.16 7.528 28.938 7.528 8.4 0 16.168-1.58 23.307-4.74 7.135-3.16 13.192-7.49 18.175-12.992l1.006 15.502h16.612V132.867ZM531 132.87v167.265h19.516v-73.596h95.34v73.596h19.511V132.869h-19.511v75.829h-95.34v-75.829zm724.7.22v167.268h45.495c32.86 0 58.098-7.323 75.716-21.971 17.617-14.641 26.427-35.273 26.427-61.885 0-26.539-8.81-47.077-26.428-61.61-17.617-14.532-42.855-21.802-75.715-21.802zm19.515 17.846h25.98c26.464 0 46.762 5.704 60.887 17.113 14.122 11.415 21.186 27.564 21.186 48.453 0 20.962-7.064 37.208-21.186 48.729-14.125 11.523-34.423 17.287-60.887 17.287h-25.98zm-248.33 35.455c-10.778 0-20.424 2.51-28.936 7.53-8.51 5.019-15.207 11.893-20.072 20.628-4.871 8.735-7.305 18.676-7.305 29.828 0 11.153 2.434 21.096 7.305 29.83 4.865 8.735 11.561 15.612 20.072 20.631 8.512 5.02 18.158 7.526 28.936 7.526 8.176 0 15.76-1.488 22.75-4.461 6.987-2.973 12.971-7.096 17.951-12.375v5.795c0 15.166-3.81 27.3-11.428 36.41-7.624 9.102-19.348 13.656-35.181 13.656-6.245 0-12.043-1.021-17.395-3.065-5.354-2.046-10.113-4.889-14.275-8.529l-9.143 15.387c5.5 4.09 11.669 7.263 18.508 9.533 6.84 2.27 14.16 3.4 21.969 3.4 14.197 0 26.148-2.88 35.851-8.638 9.7-5.762 17.04-13.811 22.024-24.143 4.98-10.334 7.469-22.376 7.469-36.13V188.62h-16.616l-1.004 15.502c-4.98-5.502-11.037-9.832-18.175-12.992-7.135-3.16-14.905-4.74-23.305-4.74zm591.766.002c-11.153 0-21.098 2.51-29.832 7.53-8.735 5.015-15.61 11.89-20.63 20.628-5.016 8.735-7.525 18.674-7.525 29.826 0 11.153 2.51 21.097 7.526 29.828 5.02 8.738 11.894 15.613 20.629 20.63 8.734 5.019 18.68 7.529 29.832 7.529 8.4 0 16.128-1.45 23.191-4.35 7.063-2.9 13.195-6.95 18.398-12.154l-12.824-12.711c-3.495 3.866-7.693 6.91-12.597 9.14-4.908 2.23-10.298 3.348-16.168 3.348-7.51 0-14.201-1.783-20.075-5.353-5.873-3.568-10.502-8.476-13.882-14.717-3.384-6.245-5.073-13.31-5.073-21.19 0-7.953 1.69-15.033 5.073-21.242 3.38-6.205 8.009-11.094 13.882-14.662 5.874-3.57 12.565-5.353 20.075-5.353 5.87 0 11.26 1.096 16.168 3.287 4.904 2.194 9.102 5.259 12.597 9.2l12.824-12.823c-5.203-5.128-11.335-9.143-18.398-12.043-7.063-2.901-14.792-4.348-23.191-4.348zm-867.868.002c-11 0-20.85 2.494-29.548 7.47-8.699 4.984-15.538 11.806-20.518 20.465-4.98 8.66-7.473 18.492-7.473 29.496 0 11.3 2.657 21.371 7.975 30.217 5.312 8.847 12.655 15.78 22.023 20.8 9.366 5.015 32.114 7.525 32.114 7.525 7.51 0 15.295-1.266 23.363-3.795 8.065-2.526 16.148-7.17 24.252-13.938l-10.817-13.826c-5.502 5.203-11.597 8.978-18.285 11.32-6.694 2.34-13.047 3.512-19.072 3.512-10.853 0-20.127-3.18-27.82-9.533-7.694-6.36-12.469-14.482-14.328-24.37h94.56v-7.468c0-11.225-2.418-21.19-7.25-29.885-4.832-8.698-11.485-15.536-19.96-20.52-8.476-4.976-18.21-7.47-29.215-7.47zm420.614 0c-11.002 0-20.849 2.494-29.547 7.47-8.699 4.984-15.54 11.806-20.52 20.465-4.98 8.66-7.472 18.492-7.472 29.496 0 11.3 2.658 21.371 7.976 30.217 5.312 8.847 12.656 15.78 22.022 20.8 9.365 5.015 20.07 7.525 32.113 7.525 7.51 0 15.295-1.266 23.363-3.795 8.065-2.526 16.15-7.17 24.254-13.938l-10.818-13.826c-5.503 5.203-11.595 8.978-18.283 11.32-6.692 2.34-13.05 3.512-19.075 3.512-10.853 0-20.125-3.18-27.818-9.533-7.693-6.36-12.47-14.482-14.33-24.37h94.56v-7.468c0-11.225-2.417-21.19-7.25-29.885-4.832-8.698-11.483-15.536-19.959-20.52-8.475-4.976-18.212-7.47-29.216-7.47zm311.21 0c-11.152 0-21.09 2.506-29.826 7.525-8.738 5.02-15.613 11.897-20.632 20.631-5.016 8.735-7.528 18.677-7.528 29.826 0 11.153 2.511 21.098 7.528 29.832 5.02 8.735 11.895 15.61 20.633 20.63 8.734 5.019 18.673 7.525 29.826 7.525 11.149 0 21.093-2.506 29.828-7.526 8.734-5.02 15.61-11.894 20.629-20.629 5.02-8.734 7.525-18.68 7.525-29.832 0-11.149-2.506-21.091-7.525-29.826-5.02-8.734-11.895-15.611-20.63-20.63-8.734-5.02-18.678-7.526-29.827-7.526zm-454.048 16.722c7.506 0 14.2 1.785 20.07 5.356 5.874 3.567 10.503 8.458 13.883 14.66 3.383 6.209 5.074 13.291 5.074 21.244 0 7.88-1.69 14.943-5.074 21.188-3.38 6.244-8.01 11.15-13.883 14.72-5.87 3.568-12.564 5.352-20.07 5.352-7.51 0-14.202-1.784-20.072-5.352-5.874-3.57-10.503-8.476-13.883-14.72-3.387-6.245-5.075-13.307-5.075-21.188 0-7.953 1.688-15.035 5.075-21.244 3.38-6.202 8.01-11.093 13.883-14.66 5.87-3.57 12.562-5.356 20.072-5.356zm-143.293.003c7.51 0 14.2 1.784 20.07 5.351 5.874 3.57 10.503 8.459 13.887 14.664 3.38 6.209 5.072 13.29 5.072 21.24 0 7.88-1.692 14.945-5.072 21.19-3.384 6.244-8.013 11.151-13.887 14.718-5.87 3.571-12.56 5.356-20.07 5.356s-14.2-1.785-20.07-5.356c-5.874-3.567-10.503-8.474-13.883-14.718-3.384-6.245-5.076-13.31-5.076-21.19 0-7.95 1.692-15.031 5.076-21.24 3.38-6.205 8.01-11.093 13.883-14.664 5.87-3.567 12.56-5.352 20.07-5.352zm-134.592.002c9.737 0 17.988 3.064 24.752 9.2 6.764 6.134 10.966 14.067 12.602 23.807h-75.604c1.636-9.588 5.948-17.488 12.936-23.697 6.987-6.205 15.426-9.31 25.314-9.31zm420.615 0c9.737 0 17.988 3.064 24.752 9.2 6.764 6.134 10.966 14.067 12.602 23.807h-75.604c1.636-9.588 5.949-17.488 12.936-23.697 6.987-6.205 15.427-9.31 25.314-9.31zm311.319 0c7.506 0 14.202 1.78 20.072 5.351 5.873 3.57 10.501 8.459 13.885 14.664 3.38 6.205 5.072 13.287 5.072 21.24 0 7.88-1.692 14.945-5.072 21.19-3.384 6.244-8.012 11.148-13.885 14.718-5.87 3.568-12.566 5.352-20.072 5.352-7.51 0-14.2-1.784-20.07-5.351-5.874-3.571-10.503-8.474-13.884-14.72-3.386-6.244-5.074-13.308-5.074-21.189 0-7.953 1.688-15.035 5.074-21.24 3.38-6.205 8.01-11.093 13.883-14.664 5.87-3.57 12.561-5.352 20.07-5.352z"
              style="fill:#fff;fill-opacity:1;stroke-width:0;stroke-dasharray:none"
              transform="matrix(.9091 0 0 .9085 -9.311 -9.305)"/>
    </g>
</svg>
