<!--
  - SPDX-FileCopyrightText: 2023 The HedgeDoc developers (see AUTHORS file)
  -
  - SPDX-License-Identifier: AGPL-3.0-only
  -->
<svg xmlns="http://www.w3.org/2000/svg" xml:space="preserve" width="1000" height="250" viewBox="0 0 1000 250" fill-rule="evenodd"
     stroke-linejoin="round" stroke-miterlimit="2" clip-rule="evenodd"><path fill="#ececec" fill-rule="nonzero" d="M314.386 174.486V73.506h11.782v45.779h57.557v-45.78h11.78v100.98h-11.78v-44.43h-57.557v44.43zm166.75-33.727v4.51h-57.088c1.123 5.97 4.006 10.871 8.65 14.71 4.645 3.836 10.244 5.756 16.796 5.756 3.637 0 7.473-.708 11.514-2.12 4.038-1.414 7.717-3.693 11.039-6.834l6.53 8.347c-4.892 4.085-9.773 6.89-14.641 8.415-4.871 1.527-9.571 2.29-14.105 2.29 0 0-13.733-1.515-19.387-4.543-5.656-3.03-10.088-7.215-13.295-12.556-3.21-5.34-4.815-11.42-4.815-18.243 0-6.643 1.505-12.579 4.512-17.806 3.006-5.228 7.135-9.347 12.386-12.355 5.252-3.005 11.197-4.51 17.839-4.51 6.643 0 12.521 1.505 17.638 4.51 5.117 3.008 9.132 7.137 12.05 12.388 2.917 5.25 4.376 11.265 4.376 18.041m-57.221-4.914h45.642c-.988-5.88-3.524-10.67-7.607-14.372-4.084-3.705-9.066-5.555-14.944-5.555-5.969 0-11.064 1.874-15.282 5.62-4.218 3.748-6.822 8.518-7.81 14.307m103.337-30.026c4.936 0 9.513.898 13.733 2.693 4.219 1.797 7.832 4.285 10.838 7.47V73.505h11.108v100.98H552.9l-.607-9.358c-3.008 3.322-6.665 5.936-10.972 7.843-4.31 1.908-9 2.862-14.071 2.862-6.507 0-12.331-1.515-17.47-4.545-5.138-3.03-9.18-7.181-12.117-12.454-2.94-5.272-4.41-11.275-4.41-18.01 0-6.73 1.47-12.731 4.41-18.007 2.937-5.273 6.979-9.423 12.117-12.454 5.139-3.03 10.963-4.543 17.47-4.543m-22.552 35.005c0 4.757 1.02 9.02 3.064 12.79 2.04 3.77 4.834 6.734 8.38 8.887 3.544 2.156 7.584 3.233 12.117 3.233 4.534 0 8.574-1.077 12.117-3.233 3.546-2.153 6.34-5.116 8.383-8.886 2.041-3.77 3.062-8.034 3.062-12.792 0-4.799-1.021-9.074-3.062-12.823-2.042-3.746-4.837-6.697-8.383-8.852-3.543-2.154-7.583-3.23-12.117-3.23-4.533 0-8.573 1.076-12.117 3.23-3.546 2.155-6.34 5.106-8.38 8.852-2.043 3.749-3.064 8.024-3.064 12.823m109.059 35.008c-6.507 0-12.332-1.513-17.47-4.544-5.138-3.03-9.18-7.18-12.117-12.454-2.941-5.273-4.41-11.276-4.41-18.009 0-6.733 1.469-12.734 4.41-18.007 2.937-5.273 6.979-9.424 12.117-12.454 5.138-3.03 10.963-4.545 17.47-4.545 5.07 0 9.76.953 14.068 2.861 4.31 1.908 7.966 4.522 10.973 7.844l.607-9.359h10.03v60.722c0 8.304-1.503 15.574-4.51 21.813-3.008 6.237-7.438 11.096-13.294 14.574-5.859 3.477-13.073 5.216-21.644 5.216-4.714 0-9.135-.682-13.264-2.053-4.129-1.37-7.853-3.286-11.173-5.755l5.52-9.289c2.512 2.198 5.385 3.913 8.618 5.148 3.23 1.234 6.73 1.85 10.5 1.85 9.56 0 16.637-2.748 21.24-8.243 4.6-5.5 6.9-12.825 6.9-21.981v-3.499c-3.007 3.187-6.62 5.676-10.838 7.47-4.22 1.795-8.797 2.694-13.733 2.694m-22.553-35.007c0 4.758 1.02 9.022 3.064 12.792 2.04 3.77 4.835 6.73 8.38 8.886 3.545 2.154 7.584 3.23 12.118 3.23 4.531 0 8.573-1.076 12.117-3.23 3.546-2.156 6.34-5.116 8.38-8.886 2.043-3.77 3.065-8.034 3.065-12.792 0-4.801-1.022-9.077-3.064-12.825-2.04-3.744-4.835-6.697-8.381-8.85-3.544-2.156-7.586-3.233-12.117-3.233-4.534 0-8.573 1.077-12.117 3.232-3.546 2.154-6.34 5.107-8.381 8.851-2.045 3.748-3.064 8.024-3.064 12.825m143.86-.065v4.51h-57.087c1.122 5.97 4.006 10.871 8.65 14.71 4.645 3.836 10.243 5.756 16.796 5.756 3.637 0 7.474-.708 11.514-2.12 4.038-1.414 7.716-3.693 11.038-6.834l6.53 8.347c-4.892 4.085-9.772 6.89-14.641 8.415-4.87 1.527-9.57 2.29-14.104 2.29-7.27 0-13.734-1.515-19.388-4.543-5.654-3.03-10.088-7.215-13.295-12.556-3.21-5.34-4.815-11.42-4.815-18.243 0-6.643 1.505-12.579 4.512-17.806 3.006-5.228 7.135-9.347 12.387-12.355 5.251-3.005 11.197-4.51 17.838-4.51 6.644 0 12.522 1.505 17.638 4.51 5.117 3.008 9.133 7.137 12.05 12.388 2.917 5.25 4.377 11.265 4.377 18.041m-57.222-4.914h45.642c-.987-5.88-3.524-10.67-7.607-14.372-4.084-3.705-9.065-5.555-14.943-5.555-5.97 0-11.064 1.874-15.282 5.62-4.219 3.749-6.823 8.518-7.81 14.307M779.36 174.62h-27.467V73.64h27.467c19.838 0 35.074 4.389 45.71 13.162 10.635 8.774 15.954 21.172 15.954 37.194 0 16.066-5.319 28.522-15.954 37.36-10.636 8.844-25.872 13.264-45.71 13.264m0-10.77c15.976 0 28.23-3.479 36.758-10.436 8.525-6.955 12.79-16.763 12.79-29.418 0-12.61-4.265-22.36-12.79-29.251-8.528-6.888-20.782-10.333-36.758-10.333h-15.685v79.438zm74.513-23.025c0-6.731 1.515-12.734 4.544-18.007 3.03-5.273 7.18-9.424 12.456-12.454 5.273-3.03 11.274-4.544 18.007-4.544 6.73 0 12.734 1.513 18.007 4.544 5.273 3.03 9.424 7.18 12.454 12.454 3.03 5.273 4.543 11.276 4.543 18.007 0 6.733-1.513 12.736-4.543 18.009-3.03 5.273-7.18 9.424-12.454 12.454-5.273 3.03-11.276 4.543-18.007 4.543-6.733 0-12.734-1.513-18.007-4.543-5.275-3.03-9.426-7.181-12.456-12.454-3.029-5.273-4.544-11.276-4.544-18.01m11.445 0c0 4.758 1.02 9.022 3.064 12.792 2.04 3.77 4.835 6.73 8.38 8.887 3.545 2.153 7.584 3.23 12.118 3.23 4.531 0 8.573-1.077 12.117-3.23 3.546-2.156 6.34-5.117 8.383-8.887 2.04-3.77 3.062-8.034 3.062-12.791 0-4.801-1.022-9.077-3.062-12.823-2.043-3.747-4.837-6.697-8.383-8.853-3.544-2.156-7.586-3.23-12.117-3.23-4.534 0-8.573 1.074-12.117 3.23-3.546 2.156-6.34 5.106-8.381 8.853-2.045 3.746-3.064 8.022-3.064 12.823m130.8 25.043c-3.141 3.141-6.843 5.587-11.107 7.338-4.264 1.75-8.93 2.625-14.001 2.625-6.733 0-12.736-1.515-18.01-4.545-5.273-3.028-9.423-7.179-12.454-12.454-3.028-5.271-4.543-11.274-4.543-18.007 0-6.733 1.515-12.734 4.543-18.007 3.03-5.275 7.181-9.426 12.455-12.454 5.273-3.03 11.276-4.546 18.009-4.546 5.07 0 9.737.875 14 2.626 4.265 1.75 7.967 4.174 11.108 7.27l-7.742 7.742c-2.11-2.38-4.644-4.23-7.605-5.555-2.963-1.322-6.218-1.985-9.761-1.985-4.534 0-8.574 1.077-12.12 3.233-3.545 2.154-6.34 5.105-8.38 8.85-2.043 3.749-3.062 8.025-3.062 12.826 0 4.757 1.02 9.021 3.062 12.791 2.04 3.768 4.835 6.73 8.38 8.885 3.546 2.155 7.586 3.232 12.12 3.232 3.543 0 6.798-.674 9.76-2.02 2.962-1.347 5.496-3.186 7.606-5.52z" style="stroke-width:.603708"/>
    <path fill="#b51f08" fill-rule="nonzero"
          d="m237.427 137.709 12.664-12.665-12.664-12.662 9.527-15.162-15.162-9.527 5.915-16.903-16.902-5.914 2.004-17.795-17.794-2.004-2.006-17.796-17.794 2.005-5.915-16.903-16.9 5.914-9.53-15.162-15.163 9.527L125.045 0l-12.662 12.663L97.22 3.136l-9.526 15.162-16.903-5.915-5.913 16.902-17.796-2.005-2.005 17.794-17.794 2.005 2.005 17.794-16.904 5.915 5.914 16.902-15.162 9.526 9.528 15.165L0 125.044l12.663 12.665-9.527 15.163 15.162 9.526-5.914 16.902 16.904 5.915-2.005 17.793 17.794 2.006 2.005 17.794 17.796-2.005 5.913 16.9 16.902-5.911 9.527 15.162 15.162-9.528 12.663 12.545 12.663-12.542 15.162 9.527 9.526-15.164 16.904 5.915 5.913-16.902 17.796 2.004 2.004-17.795 17.796-2.005-2.006-17.794 16.904-5.915-5.915-16.903 15.162-9.527z"
          style="stroke-width:.603708"/>
    <path fill="#fdd49a" fill-rule="nonzero"
          d="M211.788 145.062c0-24.474-19.84-44.315-44.315-44.315-12.156 0-23.169 4.899-31.174 12.827l-.006-.006-11.291 11.292-9.232-9.232c-8.123-9.267-20.038-15.125-33.327-15.125-24.475 0-44.315 19.84-44.315 44.315 0 12.789 5.424 24.304 14.089 32.392L125.045 250l71.219-71.265c8.898-8.376 15.524-20.194 15.524-33.673"
          style="stroke-width:.603708"/>
    <path fill="url(#a)" fill-rule="nonzero"
          d="m124.979 124.836-9.23-9.23c-8.122-9.266-20.035-15.123-33.322-15.123-24.471 0-44.308 19.838-44.308 44.308 0 12.787 5.422 24.301 14.086 32.387l72.817 72.778"
          style="fill:url(#a);stroke-width:.168253"/>
    <path fill="none" d="m125.045 250-.042-125.14" style="stroke-width:.603708"/>
    <path fill="#010007" fill-rule="nonzero"
          d="M137.696 237.416a17.838 17.838 0 0 0-12.675-5.269c-4.95 0-9.432 2.013-12.677 5.269.052 6.957 5.706 12.58 12.676 12.58s12.624-5.625 12.676-12.58m-27.48-76.63a9.687 9.687 0 0 1-9.689 9.688c-5.349 0-9.686-4.337-9.686-9.688 0-5.351 4.337-9.688 9.686-9.688a9.687 9.687 0 0 1 9.688 9.688"
          style="stroke-width:.603708"/>
    <path fill="#fffffa" fill-rule="nonzero"
          d="M106.893 159.334a2.682 2.682 0 0 1-2.684 2.682 2.683 2.683 0 0 1-2.686-2.682 2.686 2.686 0 0 1 5.37 0"
          style="stroke-width:.603708"/>
    <path fill="#010007" fill-rule="nonzero"
          d="M159.344 160.786a9.687 9.687 0 0 1-9.688 9.688c-5.35 0-9.688-4.337-9.688-9.688 0-5.351 4.338-9.688 9.688-9.688a9.687 9.687 0 0 1 9.688 9.688"
          style="stroke-width:.603708"/>
    <path fill="#fffffa" fill-rule="nonzero"
          d="M156.02 159.334a2.682 2.682 0 0 1-2.684 2.682 2.683 2.683 0 0 1-2.686-2.682 2.687 2.687 0 0 1 2.686-2.686 2.686 2.686 0 0 1 2.684 2.686"
          style="stroke-width:.603708"/>
    <defs><linearGradient id="a" x1="0" x2="1" y1="0" y2="0" gradientTransform="scale(78.26955) rotate(-64.537 2.594 .406)" gradientUnits="userSpaceOnUse"><stop offset="0" stop-color="#fdd49a"/><stop
            offset="1" stop-color="#dca055"/></linearGradient></defs></svg>
