<!--
  - SPDX-FileCopyrightText: 2023 The HedgeDoc developers (see AUTHORS file)
  -
  - SPDX-License-Identifier: AGPL-3.0-only
  -->
<svg xmlns="http://www.w3.org/2000/svg" xml:space="preserve" width="1500" height="990" viewBox="0 0 1500 990"
     fill-rule="evenodd"
     stroke-linejoin="round" stroke-miterlimit="2" clip-rule="evenodd"><path fill-rule="nonzero" d="M152.882 690.567v100.804H25.978V690.567H0v222.355h25.978V815.09h126.904v97.834h25.97V690.567Zm214.771 148.086v9.932H241.788c2.474 13.141 8.832 23.94 19.074 32.39 10.238 8.448 22.582 12.674 37.027 12.674 8.02 0 16.48-1.557 25.386-4.668 8.902-3.115 17.014-8.13 24.34-15.047l14.396 18.38c-10.784 8.995-21.548 15.17-32.282 18.53-10.74 3.358-21.102 5.04-31.096 5.04-16.029 0-30.28-3.334-42.748-10.006-12.463-6.672-22.238-15.881-29.312-27.647-7.073-11.758-10.614-25.147-10.614-40.169 0-14.629 3.317-27.696 9.948-39.21 6.627-11.51 15.732-20.578 27.31-27.205 11.579-6.618 24.684-9.927 39.331-9.927 14.648 0 27.608 3.31 38.889 9.927 11.28 6.627 20.137 15.716 26.565 27.28 6.433 11.559 9.651 24.804 9.651 39.726M241.49 827.83h100.632c-2.176-12.943-7.769-23.49-16.77-31.646-9.006-8.155-19.988-12.228-32.948-12.228-13.163 0-24.394 4.127-33.693 12.377-9.304 8.25-15.045 18.752-17.221 31.497m227.838-66.11c10.883 0 20.977 1.979 30.28 5.932 9.3 3.954 17.266 9.436 23.893 16.451v-93.537h24.493V912.92H525.88l-1.336-20.607c-6.636 7.317-14.698 13.072-24.196 17.273-9.497 4.198-19.839 6.296-31.02 6.296-14.35 0-27.19-3.334-38.52-10.001-11.33-6.672-20.237-15.815-26.715-27.428-6.482-11.61-9.72-24.825-9.72-39.652 0-14.824 3.238-28.04 9.72-39.653 6.478-11.613 15.384-20.751 26.715-27.423 11.33-6.672 24.17-10.006 38.52-10.006M419.6 838.8c0 10.477 2.25 19.863 6.76 28.163 4.496 8.304 10.656 14.823 18.478 19.57 7.814 4.742 16.72 7.114 26.714 7.114s18.9-2.372 26.715-7.114c7.818-4.747 13.977-11.266 18.482-19.57 4.5-8.3 6.751-17.686 6.751-28.164 0-10.572-2.25-19.987-6.75-28.237-4.506-8.25-10.665-14.749-18.483-19.491-7.814-4.747-16.72-7.119-26.715-7.119-9.994 0-18.9 2.372-26.714 7.119-7.822 4.742-13.982 11.24-18.478 19.491-4.51 8.25-6.76 17.665-6.76 28.237m240.455 77.084c-14.35 0-27.19-3.334-38.52-10.006-11.33-6.672-20.236-15.81-26.714-27.423-6.483-11.61-9.721-24.83-9.721-39.657 0-14.823 3.238-28.035 9.72-39.648 6.479-11.613 15.385-20.756 26.715-27.428 11.33-6.668 24.17-10.001 38.52-10.001 11.177 0 21.523 2.098 31.02 6.296 9.499 4.205 17.56 9.956 24.192 17.273l1.34-20.607h22.115v133.705c0 18.285-3.318 34.294-9.945 48.035-6.63 13.732-16.402 24.433-29.312 32.088-12.919 7.66-28.824 11.489-47.72 11.489-10.391 0-20.142-1.504-29.242-4.52-9.105-3.016-17.32-7.238-24.638-12.675l12.166-20.454c5.543 4.838 11.88 8.618 19.004 11.337 7.123 2.718 14.842 4.077 23.152 4.077 21.077 0 36.684-6.056 46.831-18.157 10.14-12.109 15.21-28.241 15.21-48.398v-7.71c-6.626 7.02-14.598 12.502-23.893 16.456-9.303 3.95-19.4 5.928-30.28 5.928m-49.726-77.086c0 10.477 2.25 19.868 6.759 28.168 4.497 8.3 10.656 14.823 18.474 19.565 7.818 4.747 16.725 7.119 26.719 7.119s18.9-2.372 26.714-7.119c7.818-4.742 13.978-11.266 18.483-19.565 4.5-8.3 6.75-17.69 6.75-28.168 0-10.568-2.25-19.983-6.75-28.237-4.505-8.246-10.665-14.745-18.483-19.492-7.814-4.742-16.72-7.114-26.714-7.114s-18.9 2.372-26.719 7.114c-7.818 4.747-13.977 11.246-18.474 19.492-4.509 8.254-6.76 17.67-6.76 28.237m317.192-.145v9.932H801.656c2.473 13.141 8.832 23.94 19.074 32.39 10.242 8.448 22.586 12.674 37.03 12.674 8.018 0 16.477-1.557 25.383-4.668 8.906-3.115 17.014-8.13 24.34-15.047l14.396 18.38c-10.784 8.995-21.548 15.17-32.278 18.53-10.74 3.358-21.101 5.04-31.1 5.04-16.029 0-30.276-3.334-42.743-10.006-12.468-6.672-22.243-15.881-29.317-27.647-7.073-11.758-10.614-25.147-10.614-40.169 0-14.629 3.317-27.696 9.948-39.21 6.627-11.51 15.732-20.578 27.31-27.205 11.579-6.618 24.688-9.927 39.331-9.927 14.648 0 27.608 3.31 38.889 9.927 11.28 6.627 20.137 15.716 26.565 27.28 6.433 11.559 9.651 24.804 9.651 39.726M801.358 827.83H901.99c-2.176-12.943-7.769-23.49-16.77-31.646-9.006-8.155-19.988-12.228-32.948-12.228-13.163 0-24.394 4.127-33.693 12.377-9.304 8.25-15.045 18.752-17.221 31.497m223.825 85.389h-60.557V690.862h60.557c43.736 0 77.33 9.664 100.78 28.981 23.451 19.323 35.178 46.622 35.178 81.9 0 35.38-11.727 62.804-35.178 82.27-23.45 19.471-57.044 29.205-100.78 29.205m0-23.718c35.223 0 62.24-7.66 81.04-22.979 18.797-15.314 28.2-36.909 28.2-64.779 0-27.766-9.403-49.236-28.2-64.407-18.8-15.17-45.817-22.755-81.04-22.755H990.6V889.5zm161.19-50.698c0-14.823 3.343-28.04 10.02-39.652 6.68-11.613 15.83-20.752 27.459-27.424 11.627-6.672 24.86-10.006 39.707-10.006 14.842 0 28.075 3.334 39.7 10.006 11.627 6.672 20.782 15.81 27.462 27.424 6.681 11.613 10.02 24.829 10.02 39.652 0 14.827-3.339 28.043-10.02 39.652-6.68 11.613-15.835 20.756-27.463 27.428-11.624 6.672-24.857 10.006-39.7 10.006-14.845 0-28.078-3.334-39.707-10.006-11.628-6.672-20.778-15.815-27.459-27.428-6.676-11.609-10.018-24.825-10.018-39.652m25.233 0c0 10.477 2.25 19.863 6.755 28.167 4.5 8.3 10.66 14.82 18.478 19.566 7.815 4.747 16.72 7.114 26.719 7.114 9.99 0 18.9-2.367 26.714-7.114 7.819-4.747 13.978-11.266 18.479-19.566 4.504-8.304 6.755-17.69 6.755-28.167 0-10.572-2.25-19.987-6.755-28.237-4.501-8.25-10.66-14.75-18.479-19.492-7.814-4.747-16.724-7.118-26.714-7.118-9.998 0-18.904 2.371-26.719 7.118-7.818 4.743-13.977 11.241-18.478 19.492-4.505 8.25-6.755 17.665-6.755 28.237M1500 893.95c-6.925 6.916-15.09 12.303-24.489 16.158-9.402 3.854-19.69 5.78-30.872 5.78-14.846 0-28.079-3.335-39.703-10.007-11.628-6.672-20.782-15.81-27.463-27.423-6.677-11.61-10.019-24.83-10.019-39.653s3.342-28.039 10.019-39.652c6.68-11.613 15.835-20.751 27.463-27.424 11.624-6.672 24.857-10.005 39.703-10.005 11.182 0 21.47 1.925 30.872 5.78 9.398 3.854 17.564 9.191 24.489 16.008l-17.068 17.05c-4.654-5.239-10.242-9.316-16.77-12.233-6.536-2.912-13.709-4.37-21.523-4.37-9.998 0-18.904 2.37-26.718 7.113-7.818 4.747-13.978 11.246-18.478 19.496-4.505 8.25-6.755 17.665-6.755 28.237 0 10.473 2.25 19.864 6.755 28.164 4.5 8.303 10.66 14.823 18.478 19.57 7.814 4.742 16.72 7.114 26.719 7.114 7.813 0 14.986-1.484 21.522-4.45 6.528-2.962 12.116-7.01 16.77-12.154z" style="stroke-width:.993567"/>
    <path fill="#b51f08" fill-rule="nonzero"
          d="m1020.625 333.465 30.743-30.668-30.743-30.661 23.128-36.715-36.81-23.07 14.36-40.932-41.034-14.32 4.866-43.091-43.2-4.854-4.87-43.093-43.198 4.855-14.361-40.93-41.031 14.32-23.136-36.715-36.812 23.072L747.787 0l-30.74 30.664-36.811-23.068-23.13 36.713-41.035-14.323-14.356 40.929-43.204-4.856-4.867 43.09-43.2 4.854 4.869 43.089-41.041 14.323 14.359 40.928-36.81 23.07 23.132 36.722-30.746 30.663 30.743 30.668-23.13 36.718 36.811 23.068-14.358 40.928 41.038 14.324-4.867 43.083 43.2 4.859 4.867 43.088 43.203-4.854 14.357 40.926 41.033-14.316 23.132 36.715 36.808-23.072 30.743 30.378 30.743-30.37 36.81 23.068 23.127-36.718 41.039 14.323 14.356-40.929 43.203 4.853 4.866-43.093 43.204-4.853-4.87-43.088 41.038-14.324-14.36-40.932 36.81-23.069z"
          style="stroke-width:.987176"/>
    <path fill="#fdd49a" fill-rule="nonzero"
          d="M958.379 351.27c0-59.264-48.167-107.31-107.586-107.31-29.513 0-56.248 11.864-75.684 31.062l-.013-.014-27.412 27.343-22.414-22.356c-19.719-22.44-48.646-36.626-80.908-36.626-59.42 0-107.588 48.046-107.588 107.311 0 30.97 13.168 58.854 34.203 78.438l176.81 176.262 172.905-172.57c21.604-20.28 37.687-48.899 37.687-81.54"
          style="stroke-width:.987176"/>
    <path fill="url(#a)" fill-rule="nonzero"
          d="m747.666 302.333-22.413-22.354c-19.718-22.438-48.643-36.623-80.904-36.623-59.417 0-107.583 48.042-107.583 107.304 0 30.968 13.167 58.851 34.202 78.435L747.77 605.348"
          style="fill:url(#a);stroke-width:.407999"/>
    <path fill="none" d="m747.788 605.38-.104-303.029" style="stroke-width:.987176"/>
    <path fill="#010007" fill-rule="nonzero"
          d="M778.501 574.908c-7.876-7.885-18.759-12.76-30.774-12.76-12.018 0-22.896 4.875-30.774 12.76.125 16.846 13.852 30.464 30.773 30.464 16.92 0 30.649-13.623 30.775-30.464m-66.717-185.561c0 12.957-10.527 23.46-23.52 23.46-12.986 0-23.515-10.502-23.515-23.46s10.529-23.46 23.515-23.46c12.993 0 23.52 10.502 23.52 23.46"
          style="stroke-width:.987176"/>
    <path fill="#fffffa" fill-rule="nonzero"
          d="M703.718 385.83c0 3.595-2.92 6.495-6.517 6.495-3.6 0-6.52-2.9-6.52-6.494 0-3.59 2.922-6.504 6.52-6.504a6.517 6.509 0 0 1 6.517 6.504"
          style="stroke-width:.987176"/>
    <path fill="#010007" fill-rule="nonzero"
          d="M831.056 389.347c0 12.957-10.529 23.46-23.52 23.46-12.987 0-23.518-10.502-23.518-23.46s10.53-23.46 23.518-23.46c12.992 0 23.52 10.502 23.52 23.46"
          style="stroke-width:.987176"/>
    <path fill="#fffffa" fill-rule="nonzero"
          d="M822.987 385.83c0 3.595-2.921 6.495-6.516 6.495-3.6 0-6.52-2.9-6.52-6.494 0-3.59 2.92-6.504 6.52-6.504a6.518 6.51 0 0 1 6.516 6.504"
          style="stroke-width:.987176"/>
    <defs><linearGradient id="a" x1="0" x2="1" y1="0" y2="0" gradientTransform="matrix(81.70512 -171.13926 171.58076 81.49488 655.51 487.845)" gradientUnits="userSpaceOnUse"><stop offset="0" stop-color="#fdd49a"/><stop
            offset="1" stop-color="#dca055"/></linearGradient></defs></svg>
